<?xml version="1.0" encoding="utf-8"?>
<!-- Generator: Adobe Illustrator 22.0.1, SVG Export Plug-In . SVG Version: 6.00 Build 0)  -->
<svg version="1.1" id="Squeezer-Logo" xmlns="http://www.w3.org/2000/svg" xmlns:xlink="http://www.w3.org/1999/xlink" x="0px"
	 y="0px" viewBox="0 0 2348.4 797" style="enable-background:new 0 0 2348.4 797;" xml:space="preserve">
<style type="text/css">
	.st0{fill:#FFFFFF;}
</style>
<g>
	<g>
		<path class="st0" d="M812.7,353.3c-4.1-5.2-9.5-9.4-16.1-12.5c-6.6-3.1-13-4.6-19.2-4.6c-3.2,0-6.4,0.3-9.7,0.8
			c-3.3,0.6-6.2,1.6-8.8,3.2c-2.6,1.6-4.8,3.6-6.6,6.2c-1.8,2.5-2.7,5.7-2.7,9.7c0,3.4,0.7,6.2,2.1,8.4c1.4,2.2,3.5,4.2,6.2,5.9
			c2.7,1.7,5.9,3.2,9.7,4.6c3.7,1.4,7.9,2.8,12.6,4.3c6.7,2.2,13.7,4.7,21,7.4c7.3,2.7,13.9,6.3,19.9,10.8c6,4.5,10.9,10,14.8,16.7
			c3.9,6.6,5.9,14.9,5.9,24.8c0,11.4-2.1,21.2-6.3,29.5c-4.2,8.3-9.8,15.2-16.9,20.6c-7.1,5.4-15.2,9.4-24.4,12
			c-9.1,2.6-18.6,3.9-28.3,3.9c-14.2,0-27.9-2.5-41.2-7.4c-13.3-4.9-24.3-12-33-21.1l31.4-31.9c4.9,6,11.2,11,19.2,15
			c7.9,4,15.8,6,23.7,6c3.5,0,7-0.4,10.4-1.1c3.4-0.7,6.3-2,8.8-3.6c2.5-1.7,4.5-3.9,6-6.7c1.5-2.8,2.2-6.2,2.2-10.1
			c0-3.7-0.9-6.9-2.8-9.5c-1.9-2.6-4.5-5-8-7.1c-3.5-2.1-7.7-4.1-12.9-5.9c-5.1-1.8-11-3.7-17.5-5.7c-6.3-2.1-12.6-4.5-18.6-7.3
			c-6.1-2.8-11.5-6.4-16.2-10.8c-4.8-4.4-8.6-9.7-11.5-16c-2.9-6.3-4.3-13.9-4.3-22.8c0-11,2.2-20.4,6.7-28.3
			c4.5-7.8,10.4-14.3,17.6-19.3c7.3-5,15.5-8.7,24.6-11.1c9.1-2.3,18.4-3.5,27.7-3.5c11.2,0,22.6,2.1,34.3,6.2
			c11.7,4.1,21.9,10.2,30.7,18.2L812.7,353.3z"/>
		<path class="st0" d="M962.8,500c-15.7,0-30.1-2.2-43.1-6.7c-13.1-4.5-24.2-11.1-33.5-19.7s-16.4-19.3-21.6-31.9
			c-5.1-12.6-7.7-27-7.7-43.3c0-15.1,2.7-28.9,8.1-41.4c5.4-12.5,12.9-23.2,22.5-32.2c9.6-9,21-15.9,34.2-20.9
			c13.2-4.9,27.4-7.4,42.7-7.4c15.3,0,29.5,2.5,42.6,7.4c13.1,4.9,24.4,11.9,33.9,20.7c9.5,8.9,16.9,19.5,22.3,31.9
			c5.3,12.4,8,26.1,8,41c0,7.7-0.8,14.8-2.5,21.4c-1.7,6.6-3.9,12.6-6.7,18.1c-2.8,5.4-6,10.2-9.5,14.4c-3.5,4.2-7.1,7.7-10.6,10.5
			v0.8l41.7-0.8V500H962.8z M1020.5,398.9c0-8.6-1.4-16.5-4.1-23.8c-2.7-7.3-6.5-13.5-11.5-18.8c-4.9-5.2-10.9-9.3-17.8-12.2
			c-6.9-2.9-14.5-4.3-22.7-4.3c-8,0-15.4,1.4-22.3,4.3c-6.8,2.9-12.7,7-17.8,12.2c-5,5.2-9,11.5-11.8,18.8
			c-2.8,7.3-4.2,15.2-4.2,23.8c0,9,1.4,17.1,4.1,24.5c2.7,7.4,6.5,13.7,11.5,19c4.9,5.3,10.8,9.4,17.6,12.3
			c6.8,2.9,14.3,4.3,22.5,4.3c8,0,15.5-1.4,22.4-4.3c6.9-2.9,12.9-7,17.9-12.3c5-5.3,9-11.7,11.8-19
			C1019.1,416,1020.5,407.9,1020.5,398.9z"/>
		<path class="st0" d="M1263.9,457.9c-4,9.8-9.8,18.2-17.2,25.2c-7.5,7-16.5,12.5-27,16.4c-10.5,3.9-22.3,5.9-35.1,5.9
			c-13.1,0-24.8-2-35.3-5.9c-10.5-3.9-19.3-9.4-26.6-16.4s-12.9-15.4-16.8-25.2c-3.9-9.8-5.9-20.7-5.9-32.6V301.8h47.6v119.6
			c0,5.4,0.7,10.5,2.1,15.4c1.4,4.9,3.5,9.2,6.4,13c2.9,3.8,6.7,6.9,11.5,9.1c4.8,2.2,10.5,3.4,17.2,3.4c6.7,0,12.5-1.1,17.2-3.4
			s8.6-5.3,11.6-9.1c3-3.8,5.1-8.2,6.4-13c1.3-4.9,2-10,2-15.4V301.8h47.9v123.5C1270,437.2,1268,448.1,1263.9,457.9z"/>
		<path class="st0" d="M1300,500V301.8h133.3v40.3h-87.1v37.5h82.3V418h-82.3v41.2h92.1V500H1300z"/>
		<path class="st0" d="M1462.5,500V301.8h133.3v40.3h-87.1v37.5h82.3V418h-82.3v41.2h92.1V500H1462.5z"/>
		<path class="st0" d="M1625,500v-41.5l94.4-116.4h-92.1v-40.3h152v38.4l-96.6,118.4h98.6V500H1625z"/>
		<path class="st0" d="M1812.5,500V301.8h133.3v40.3h-87.1v37.5h82.3V418h-82.3v41.2h92.1V500H1812.5z"/>
		<path class="st0" d="M2081.5,500l-43-78.7h-16.3V500h-46.8V301.8h75.6c9.5,0,18.8,1,27.9,2.9c9.1,2,17.2,5.3,24.4,9.9
			c7.2,4.7,12.9,10.8,17.2,18.5c4.3,7.7,6.4,17.2,6.4,28.6c0,13.4-3.6,24.7-10.9,33.9c-7.3,9.1-17.4,15.7-30.2,19.6l51.8,84.8
			H2081.5z M2079.5,362.5c0-4.7-1-8.4-3-11.3c-2-2.9-4.5-5.1-7.6-6.7c-3.1-1.6-6.6-2.7-10.4-3.2c-3.8-0.6-7.6-0.8-11.1-0.8h-25.6
			v46.2h22.8c3.9,0,8-0.3,12.1-1c4.1-0.7,7.9-1.8,11.3-3.5c3.4-1.7,6.1-4.1,8.3-7.3C2078.5,371.7,2079.5,367.6,2079.5,362.5z"/>
	</g>
	<g>
		<path class="st0" d="M613.6,399.5c-0.1-6.8-5.7-12.2-12.5-12.2h-67.9c-2.3-37.6-14.6-73.5-36-104.6c-23.2-33.7-55.5-59.7-93.3-75
			c-1.8-0.7-3.8-0.7-5.6,0c-37.8,15.3-70.1,41.2-93.3,75c-21.4,31.1-33.7,67.1-36,104.6h-67.9c-6.8,0-12.4,5.4-12.5,12.2
			c0,0.2,0,0.4,0,0.5c0,76.9,41.8,148.1,109,185.6c1.9,1,4,1.6,6.1,1.6h194.8c2.1,0,4.2-0.5,6.1-1.6c67.2-37.6,109-108.7,109-185.6
			C613.6,399.8,613.6,399.6,613.6,399.5z M403.6,386.9l0-161.2c21,49,32.5,105.9,32.5,161.5h-70c0-55.6,11.5-112.5,32.5-161.5
			l0,161.2H403.6z M409.3,226.4c0.2,0.1,0.4,0.2,0.6,0.3c18.6,20.2,33.3,42.3,43.8,65.7c13.2,29.5,19.9,61.4,19.9,94.8h-32.5
			C441.1,332,429.9,275.5,409.3,226.4z M392.9,226.4c-20.5,49-31.8,105.6-31.8,160.8h-32.5c0-33.4,6.7-65.3,19.9-94.8
			c10.5-23.4,25.2-45.5,43.8-65.7C392.5,226.6,392.7,226.5,392.9,226.4z M484.8,291.1c19.7,28.6,31.1,61.6,33.3,96.1h-39.6
			c0-34.2-6.9-66.7-20.4-96.9c-9-20.1-21.1-39.3-36-57.1C447,247.5,468.4,267.2,484.8,291.1z M317.4,291.1
			c16.4-23.9,37.8-43.6,62.6-57.8c-14.9,17.9-26.9,37-36,57.1c-13.5,30.1-20.4,62.7-20.4,96.9H284
			C286.3,352.7,297.7,319.7,317.4,291.1z M495.2,562.2H307c-54.2-31.5-89-87.9-93-150h374.2C584.1,474.3,549.4,530.7,495.2,562.2z"
			/>
		<path class="st0" d="M476.1,534.6c0.8,0,1.7-0.2,2.5-0.7c3.9-2.2,7.7-4.7,11.4-7.3c2.3-1.6,2.8-4.7,1.2-7c-1.6-2.3-4.7-2.8-7-1.2
			c-3.4,2.4-7,4.7-10.7,6.8c-2.4,1.4-3.2,4.4-1.8,6.8C472.7,533.7,474.4,534.6,476.1,534.6z"/>
		<path class="st0" d="M507.2,510.8c1.3,0,2.6-0.5,3.5-1.5c15.9-15.9,28.4-35.5,36.1-56.6c0.9-2.6-0.4-5.5-3-6.4
			c-2.6-0.9-5.5,0.4-6.4,3c-7.2,19.7-18.9,38-33.8,52.9c-2,2-2,5.1,0,7.1C504.6,510.3,505.9,510.8,507.2,510.8z"/>
	</g>
</g>
</svg>
